<?xml version="1.0" encoding="UTF-8"?>
<svg id="Layer_1" data-name="Layer 1" xmlns="http://www.w3.org/2000/svg" viewBox="0 0 1000 1000">
  <defs>
    <style>
      .cls-1 {
        fill: #fff;
      }
    </style>
  </defs>
  <path d="M482.76,41.7c268.76-9.1,486.33,210.18,475.67,478.74-9.47,238.46-202.27,429.95-440.53,439.05-269.37,10.29-487.42-209.32-476.85-478.38C50.41,243.02,244.41,49.77,482.76,41.7ZM578.39,275.91c-44.13,3.1-60.53,34.33-67.24,73.9-3.28,19.34-.18,41.55,4.6,60.53,1.38,5.47,6.03,22.48,14.15,14.47,4.81-4.74,9.4-15.76,16.75-17,6.67-1.13,10.83,2.16,14.36,7.38,19.63,52.84,40.78,105.09,60.44,157.92,5.72,15.37,8.34,21.84,18.92,34.77,25.37,30.98,51.38,42.56,90.76,47.31,19.49,2.35,44.03,5.55,63.4,4.09,3.33-.25,11.18-1.45,12.57-4.81,2.63-6.32-2.39-18.6-4.91-24.82-8.27-20.38-18.4-40-27.43-60.01-20-44.32-36.47-90.09-55.41-134.82-5.33-12.57-11.52-24.79-16.84-37.36-16.73-39.49-24.91-75.23-60.67-102.97-17.84-13.84-40.9-20.15-63.46-18.57ZM375.37,280c-19.25,1.17-45.22,7.5-59.23,21.57-11.04,11.1-3.49,29.76,1.16,42.33,6.8,18.37,15.1,36.63,22.24,54.97,20.28,52.06,40.27,104.2,60.6,156.23,13.99,35.82,29.25,58.22,60.56,81.09,31.7,23.15,71.64,24.76,109.87,22.1,6.71-.47,19.33-1.17,19.17-10.48-.26-15.7-11.71-37.6-17.64-52.46-26.47-66.23-51.75-133.12-79.3-198.89-10.19-24.32-21.66-52.1-34.41-75.02-20.3-36.46-41.97-43.94-83.04-41.44ZM251.61,427.78c-11.62,1.31-19.58,8.71-27,16.98-25.27,28.16-40.61,79.59-29.39,116.35,8,26.23,38.57,65.22,62.49,78.65,25.23,14.17,64.83,19.14,93.5,17.51,8.19-.47,27.28-2.1,24.53-14.35-10.43-25.55-20.94-51.09-31.18-76.72-14.9-37.28-28.73-76.27-44.52-112.99-7.38-17.16-30.37-27.47-48.43-25.44Z"/>
  <path class="cls-1" d="M578.39,275.91c22.56-1.58,45.62,4.72,63.46,18.57,35.76,27.75,43.94,63.48,60.67,102.97,5.33,12.57,11.52,24.79,16.84,37.36,18.95,44.73,35.41,90.5,55.41,134.82,9.03,20.01,19.16,39.64,27.43,60.01,2.53,6.23,7.54,18.5,4.91,24.82-1.4,3.36-9.25,4.56-12.57,4.81-19.37,1.46-43.92-1.74-63.4-4.09-39.38-4.75-65.39-16.33-90.76-47.31-10.59-12.93-13.2-19.4-18.92-34.77-19.67-52.83-40.82-105.07-60.44-157.92-3.53-5.23-7.7-8.51-14.36-7.38-7.34,1.25-11.94,12.27-16.75,17-8.13,8.01-12.78-9-14.15-14.47-4.78-18.98-7.88-41.2-4.6-60.53,6.71-39.58,23.11-70.81,67.24-73.9Z"/>
  <path class="cls-1" d="M375.37,280c41.07-2.5,62.74,4.98,83.04,41.44,12.76,22.92,24.23,50.7,34.41,75.02,27.55,65.77,52.83,132.67,79.3,198.89,5.94,14.86,17.38,36.75,17.64,52.46.15,9.31-12.46,10.01-19.17,10.48-38.23,2.66-78.17,1.05-109.87-22.1-31.31-22.87-46.57-45.27-60.56-81.09-20.33-52.03-40.32-104.17-60.6-156.23-7.15-18.34-15.44-36.61-22.24-54.97-4.65-12.56-12.21-31.23-1.16-42.33,14.01-14.07,39.98-20.4,59.23-21.57Z"/>
  <path class="cls-1" d="M251.61,427.78c18.06-2.04,41.05,8.27,48.43,25.44,15.78,36.72,29.62,75.71,44.52,112.99,10.24,25.63,20.75,51.16,31.18,76.72,2.75,12.25-16.34,13.88-24.53,14.35-28.67,1.63-68.27-3.34-93.5-17.51-23.92-13.44-54.49-52.43-62.49-78.65-11.22-36.76,4.11-88.19,29.39-116.35,7.42-8.27,15.38-15.66,27-16.98Z"/>
</svg>