<?xml version="1.0" encoding="UTF-8"?>
<svg id="Layer_1" xmlns="http://www.w3.org/2000/svg" version="1.1" viewBox="0 0 1000 1000">
  <!-- Generator: Adobe Illustrator 29.6.0, SVG Export Plug-In . SVG Version: 2.1.1 Build 207)  -->
  <path d="M707.8,317.8c29.2,28.7,39,66.2,54.4,102.8,6.5,15.3,14,30.2,20.5,45.5,19.9,47.2,37.3,95.4,58.2,142.3s27.5,54.8,37,82c1.9,5.6,6.9,20.3.7,24-7.1,4.3-24.6,3-32.9,2.6-22.2-.9-49.5-3.2-71.3-7.2-37.1-6.9-67.3-29.2-88.9-59.6-10.9-15.3-14.7-31.4-21.2-48.8-18.9-50.1-37.7-100.7-57.5-150.4-2.8-7-6.4-16.2-15.2-17.3-11.6-1.5-16.5,12.2-23,19-9.6,10-14.9-9-16.6-15.9-8-32.1-9.1-56.2-.6-88.3,9.8-36.8,31.9-61,71.7-63.3,34-2,60.7,9.2,84.6,32.7Z"/>
  <path d="M470.8,311.8c6.9,7.5,13.9,18.9,18.8,28,16.5,30.9,30.9,66.3,44.1,98.8,28.5,69.7,55.4,140,83.5,209.9,6.6,16.4,18.5,38.6,18.3,56.2s-19.6,10.9-28.3,11.2c-52.8,2.2-88.4.5-129.8-34.7s-41.5-45.6-54.9-79.6c-24.8-63.1-49-126.5-73.8-189.7-7.6-19.4-28.5-61.8-28.4-80.6s16.8-26.4,30.7-32.3c33.7-14.4,92.9-16.2,119.6,12.8Z"/>
  <path d="M254.9,456.2c20.2-2.3,46.2,9.6,54.4,28.9s1.4,4.8,2.4,7.1c28,68.4,54,137.6,82.6,205.8,3.6,14.5-16.5,16.4-26.5,17-32.7,2-77.9-3.7-106.6-19.9-27.2-15.4-61.4-59.1-70.4-89-12.1-40.1,4.3-96.1,30.8-127.7,9-10.7,18.6-20.5,33.4-22.1Z"/>
</svg>