<svg width="148" height="32" viewBox="0 0 148 32" fill="none" xmlns="http://www.w3.org/2000/svg">
  <style>
    .word { font-family: 'Inter', 'Segoe UI', sans-serif; font-weight: 600; letter-spacing: 0.16em; fill: #9CA3AF; }
  </style>
  <path d="M18.6 4c6 0 10.8 4.7 10.8 10.7 0 6-4.8 10.8-10.8 10.8a10.8 10.8 0 0 1-9.9-6l4-2.1c1.2 2.4 3.1 3.9 5.9 3.9 3.6 0 6.4-2.8 6.4-6.6 0-3.8-2.8-6.5-6.4-6.5-3.3 0-5.7 1.8-6.4 4.8H20v4h-9.6c-.2-.7-.3-1.5-.3-2.3C10.1 8.6 13.8 4 18.6 4Z" fill="#9CA3AF"/>
  <text class="word" x="44" y="22">GLOSSIER</text>
</svg>
